<svg width="14" height="12" viewBox="0 0 14 12" fill="none" xmlns="http://www.w3.org/2000/svg">
<path d="M1.33333 1.33333V10.6667H12V1.33333H1.33333ZM0.666667 0H12.6667C12.8435 0 13.013 0.0702379 13.1381 0.195262C13.2631 0.320286 13.3333 0.489856 13.3333 0.666667V11.3333C13.3333 11.5101 13.2631 11.6797 13.1381 11.8047C13.013 11.9298 12.8435 12 12.6667 12H0.666667C0.489856 12 0.320286 11.9298 0.195262 11.8047C0.0702379 11.6797 0 11.5101 0 11.3333V0.666667C0 0.489856 0.0702379 0.320286 0.195262 0.195262C0.320286 0.0702379 0.489856 0 0.666667 0ZM8.52867 4.52867L7.33333 3.33333H10.6667V6.66667L9.47133 5.47133L6.89533 8.04733L5.48133 6.63333L3.59533 8.51867L2.65267 7.576L5.48133 4.74733L6.89533 6.162L8.52867 4.52867Z" fill="white"/>
</svg>
