<svg width="14" height="12" viewBox="0 0 14 12" fill="none" xmlns="http://www.w3.org/2000/svg">
<path d="M12 5.33333H11.3333V2.66667H12V0.666667H13.3333V2.66667H14V5.33333H13.3333V10C13.3333 10.5304 13.1226 11.0391 12.7475 11.4142C12.3725 11.7893 11.8638 12 11.3333 12C10.8029 12 10.2942 11.7893 9.91912 11.4142C9.54405 11.0391 9.33333 10.5304 9.33333 10V7.33333H8V10.6667H8.66667V12H0V10.6667H0.666667V0.666667C0.666667 0.489856 0.736905 0.320286 0.861929 0.195262C0.986953 0.0702379 1.15652 0 1.33333 0H7.33333C7.51014 0 7.67971 0.0702379 7.80474 0.195262C7.92976 0.320286 8 0.489856 8 0.666667V6H9.33333C9.68696 6 10.0261 6.14048 10.2761 6.39052C10.5262 6.64057 10.6667 6.97971 10.6667 7.33333V10C10.6667 10.1768 10.7369 10.3464 10.8619 10.4714C10.987 10.5964 11.1565 10.6667 11.3333 10.6667C11.5101 10.6667 11.6797 10.5964 11.8047 10.4714C11.9298 10.3464 12 10.1768 12 10V5.33333ZM6.66667 10.6667V1.33333H2V10.6667H6.66667ZM4.66667 5.33333H6.66667L4 9.33333V6.66667H2L4.66667 2.66667V5.33333Z" fill="white"/>
</svg>
