<svg width="14" height="14" viewBox="0 0 14 14" fill="none" xmlns="http://www.w3.org/2000/svg">
<path d="M6.66667 0C10.3487 0 13.3333 2.98467 13.3333 6.66667C13.3333 10.3487 10.3487 13.3333 6.66667 13.3333C2.98467 13.3333 0 10.3487 0 6.66667C0 2.98467 2.98467 0 6.66667 0ZM6.66667 1.33333C5.25218 1.33333 3.89562 1.89524 2.89543 2.89543C1.89524 3.89562 1.33333 5.25218 1.33333 6.66667C1.33333 8.08115 1.89524 9.43771 2.89543 10.4379C3.89562 11.4381 5.25218 12 6.66667 12C8.08115 12 9.43771 11.4381 10.4379 10.4379C11.4381 9.43771 12 8.08115 12 6.66667C12 5.25218 11.4381 3.89562 10.4379 2.89543C9.43771 1.89524 8.08115 1.33333 6.66667 1.33333ZM9.222 3.558C9.29847 3.50436 9.39143 3.47943 9.48448 3.4876C9.57753 3.49577 9.66471 3.53652 9.73067 3.60267C9.79649 3.66849 9.83684 3.75553 9.84453 3.8483C9.85222 3.94107 9.82676 4.03357 9.77267 4.10933C8.31933 6.14 7.51933 7.228 7.374 7.374C7.18627 7.56135 6.93189 7.66657 6.66667 7.66657C6.40145 7.66657 6.14706 7.56135 5.95933 7.374C5.77199 7.18627 5.66677 6.93189 5.66677 6.66667C5.66677 6.40145 5.77199 6.14706 5.95933 5.95933C6.20867 5.71067 7.296 4.91 9.222 3.558ZM10.3333 6C10.5101 6 10.6797 6.07024 10.8047 6.19526C10.9298 6.32029 11 6.48986 11 6.66667C11 6.84348 10.9298 7.01305 10.8047 7.13807C10.6797 7.2631 10.5101 7.33333 10.3333 7.33333C10.1565 7.33333 9.98695 7.2631 9.86193 7.13807C9.7369 7.01305 9.66667 6.84348 9.66667 6.66667C9.66667 6.48986 9.7369 6.32029 9.86193 6.19526C9.98695 6.07024 10.1565 6 10.3333 6ZM3 6C3.17681 6 3.34638 6.07024 3.4714 6.19526C3.59643 6.32029 3.66667 6.48986 3.66667 6.66667C3.66667 6.84348 3.59643 7.01305 3.4714 7.13807C3.34638 7.2631 3.17681 7.33333 3 7.33333C2.82319 7.33333 2.65362 7.2631 2.5286 7.13807C2.40357 7.01305 2.33333 6.84348 2.33333 6.66667C2.33333 6.48986 2.40357 6.32029 2.5286 6.19526C2.65362 6.07024 2.82319 6 3 6ZM4.54533 3.60267C4.67034 3.72785 4.7405 3.89756 4.74037 4.07447C4.74025 4.25138 4.66985 4.42099 4.54467 4.546C4.41949 4.67101 4.24977 4.74116 4.07286 4.74104C3.89595 4.74091 3.72634 4.67052 3.60133 4.54533C3.53944 4.48335 3.49036 4.40978 3.45689 4.32883C3.42343 4.24788 3.40623 4.16113 3.4063 4.07353C3.40636 3.98593 3.42367 3.89921 3.45725 3.8183C3.49083 3.7374 3.54002 3.6639 3.602 3.602C3.72718 3.47699 3.8969 3.40684 4.0738 3.40696C4.1614 3.40702 4.24813 3.42434 4.32903 3.45792C4.40994 3.4915 4.48344 3.54068 4.54533 3.60267ZM6.66667 2.33333C6.84348 2.33333 7.01305 2.40357 7.13807 2.5286C7.2631 2.65362 7.33333 2.82319 7.33333 3C7.33333 3.17681 7.2631 3.34638 7.13807 3.4714C7.01305 3.59643 6.84348 3.66667 6.66667 3.66667C6.48986 3.66667 6.32029 3.59643 6.19526 3.4714C6.07024 3.34638 6 3.17681 6 3C6 2.82319 6.07024 2.65362 6.19526 2.5286C6.32029 2.40357 6.48986 2.33333 6.66667 2.33333Z" fill="white"/>
</svg>
